<mxfile host="app.diagrams.net" modified="2024-04-04T06:57:21.623Z" agent="Mozilla/5.0 (Windows NT 10.0; Win64; x64) AppleWebKit/537.36 (KHTML, like Gecko) Chrome/123.0.0.0 Safari/537.36" version="24.0.6" etag="JuVy8qXC8z73PpTJAwVZ" type="github">
  <diagram name="Page-1" id="fN30Lf7py5oxsHeLdFWZ">
    <mxGraphModel>
      <root>
        <mxCell id="0" />
        <mxCell id="1" parent="0" />
      </root>
    </mxGraphModel>
  </diagram>
</mxfile>
